<svg width="127" height="126" viewBox="0 0 127 126" fill="none" xmlns="http://www.w3.org/2000/svg">
<circle cx="63.434" cy="62.8325" r="62.8325" fill="url(#paint0_linear_4741_2342)"/>
<path d="M91.6459 69.9102H36.5352C30.5962 69.9102 25.7344 74.5876 25.7344 80.3126C25.7344 86.0302 30.5962 90.715 36.5352 90.715H91.6459C97.5848 90.715 102.447 86.0376 102.447 80.3126C102.454 74.5876 97.5922 69.9102 91.6459 69.9102Z" fill="#EDC391"/>
<path d="M93.4252 43.4631C86.3354 32.6771 77.1945 28.9883 63.9148 28.9883C50.6351 28.9883 41.4943 32.6697 34.4044 43.4631C29.2106 51.3719 27.9564 63.8032 29.5573 76.6107C31.0993 88.9239 32.3756 95.6818 40.0188 102.58C46.6586 108.57 55.674 109.862 63.4058 109.862H64.4239C72.1556 109.862 81.1784 108.57 87.8109 102.58C95.4541 95.6818 96.7304 88.9239 98.2723 76.6107C99.8733 63.8032 98.6191 51.3645 93.4252 43.4631Z" fill="#F7DECE"/>
<defs>
<linearGradient id="paint0_linear_4741_2342" x1="63.434" y1="0" x2="63.434" y2="125.665" gradientUnits="userSpaceOnUse">
<stop stop-color="#AFC1DC"/>
<stop offset="1" stop-color="#E2E5ED"/>
</linearGradient>
</defs>
</svg>
